<svg width="24" height="24" viewBox="0 0 24 24" fill="none" xmlns="http://www.w3.org/2000/svg">
<rect width="24" height="24" rx="12" fill="black" fill-opacity="0.08"/>
<path d="M16.4731 15.5468C16.5356 15.6088 16.5852 15.6825 16.6191 15.7638C16.6529 15.845 16.6703 15.9321 16.6703 16.0202C16.6703 16.1082 16.6529 16.1953 16.6191 16.2765C16.5852 16.3578 16.5356 16.4315 16.4731 16.4935C16.3441 16.611 16.1742 16.6732 15.9998 16.6668C15.9121 16.6673 15.8251 16.6505 15.7439 16.6173C15.6626 16.5842 15.5888 16.5353 15.5265 16.4735L11.9998 12.9735L8.4798 16.4935C8.41783 16.556 8.34409 16.6056 8.26285 16.6394C8.18161 16.6733 8.09448 16.6907 8.00647 16.6907C7.91846 16.6907 7.83132 16.6733 7.75009 16.6394C7.66885 16.6056 7.59511 16.556 7.53314 16.4935C7.47065 16.4315 7.42105 16.3578 7.38721 16.2765C7.35336 16.1953 7.33594 16.1082 7.33594 16.0202C7.33594 15.9321 7.35336 15.845 7.38721 15.7638C7.42105 15.6825 7.47065 15.6088 7.53314 15.5468L11.0598 12.0001L7.53314 8.50015C7.4076 8.37461 7.33708 8.20435 7.33708 8.02682C7.33708 7.84928 7.4076 7.67902 7.53314 7.55348C7.65867 7.42795 7.82894 7.35742 8.00647 7.35742C8.184 7.35742 8.35427 7.42795 8.4798 7.55348L11.9998 11.0801L15.5198 7.55348C15.582 7.49132 15.6558 7.44202 15.737 7.40838C15.8182 7.37474 15.9052 7.35742 15.9931 7.35742C16.081 7.35742 16.1681 7.37474 16.2493 7.40838C16.3305 7.44202 16.4043 7.49132 16.4665 7.55348C16.5286 7.61564 16.5779 7.68944 16.6116 7.77065C16.6452 7.85186 16.6625 7.93891 16.6625 8.02682C16.6625 8.11472 16.6452 8.20177 16.6116 8.28298C16.5779 8.3642 16.5286 8.43799 16.4665 8.50015L12.9531 12.0001L16.4731 15.5468Z" fill="#003B71"/>
</svg>
