<svg width="40" height="40" viewBox="0 0 40 40" fill="none" xmlns="http://www.w3.org/2000/svg">
<ellipse cx="19.9991" cy="20" rx="19.9991" ry="20" fill="white"/>
<ellipse opacity="0.15" cx="19.9991" cy="20" rx="19.9991" ry="20" fill="#90CEF1"/>
<path fill-rule="evenodd" clip-rule="evenodd" d="M15 15C15 17.76 17.25 20 20 20C22.75 20 24.99 17.76 25 15C25 12.24 22.75 10 20 10C17.24 10 15 12.25 15 15ZM17 15.01C17 13.35 18.35 12.01 20 12.01C21.65 12.01 22.99 13.36 23 15.01C23 16.67 21.66 18.01 20 18.01C18.34 18.01 17 16.66 17 15.01ZM24 21C24.19 21 24.39 21.01 24.57 21.03C27.62 21.32 30 23.88 30 27C30 28.1 29.1 29 28 29H12C10.9 29 10 28.1 10 27C10 23.88 12.38 21.32 15.43 21.03C15.61 21.01 15.81 21 16 21H17.77C18.32 21.61 19.12 22 20 22C20.46 22 20.9 21.89 21.29 21.7C21.56 21.58 21.8 21.42 22.01 21.22C22.09 21.15 22.16 21.08 22.23 21H24ZM16 23C13.79 23 12 24.79 12 27H28C28 24.79 26.21 23 24 23H23C22.17 23.63 21.13 24 20 24C18.87 24 17.83 23.63 17 23H16Z" fill="#006BA6"/>
</svg>
