<svg width="32" height="32" viewBox="0 0 32 32" fill="none" xmlns="http://www.w3.org/2000/svg">
<circle cx="16" cy="16" r="16" fill="white"/>
<path fill-rule="evenodd" clip-rule="evenodd" d="M10.4443 24.3147C12.0888 25.4135 14.0222 26 16 26C18.6522 26 21.1957 24.9464 23.0711 23.0711C24.9464 21.1957 26 18.6522 26 16C26 14.0222 25.4135 12.0888 24.3147 10.4443C23.2159 8.79981 21.6541 7.51809 19.8268 6.76121C17.9996 6.00433 15.9889 5.8063 14.0491 6.19215C12.1093 6.578 10.3275 7.53041 8.92893 8.92894C7.53041 10.3275 6.578 12.1093 6.19215 14.0491C5.8063 15.9889 6.00433 17.9996 6.76121 19.8268C7.51808 21.6541 8.79981 23.2159 10.4443 24.3147ZM11.5554 9.34825C12.871 8.4692 14.4178 8 16 8C18.1217 8 20.1566 8.84286 21.6569 10.3432C23.1571 11.8434 24 13.8783 24 16C24 17.5823 23.5308 19.129 22.6518 20.4446C21.7727 21.7602 20.5233 22.7855 19.0615 23.391C17.5997 23.9965 15.9911 24.155 14.4393 23.8463C12.8874 23.5376 11.462 22.7757 10.3431 21.6569C9.22433 20.538 8.4624 19.1126 8.15372 17.5607C7.84504 16.0089 8.00346 14.4003 8.60896 12.9385C9.21447 11.4767 10.2398 10.2273 11.5554 9.34825ZM13.6161 20.4758C13.7379 20.5255 13.8684 20.5508 14 20.55L14.09 20.51C14.2294 20.5058 14.3663 20.4725 14.492 20.4122C14.6177 20.3519 14.7294 20.266 14.82 20.16L20.77 13.16C20.9411 12.9571 21.0245 12.6946 21.002 12.4302C20.9795 12.1657 20.8529 11.9211 20.65 11.75C20.4471 11.5789 20.1846 11.4955 19.9201 11.518C19.6557 11.5405 19.4111 11.6671 19.24 11.87L14 18.07L11.76 15.85C11.573 15.6617 11.3189 15.5554 11.0535 15.5545C10.7882 15.5535 10.5333 15.658 10.345 15.845C10.1567 16.032 10.0504 16.2861 10.0494 16.5515C10.0485 16.8168 10.153 17.0717 10.34 17.26L13.29 20.26C13.3834 20.3527 13.4943 20.426 13.6161 20.4758Z" fill="#006BA6"/>
</svg>
