<svg width="24" height="24" viewBox="0 0 24 24" fill="none" xmlns="http://www.w3.org/2000/svg">
<path d="M15.2878 6.0868V4.69878H16.2615C16.7173 4.69878 17.1109 4.32587 17.1109 3.84939C17.1109 3.3729 16.738 3 16.2615 3H12.636C12.1803 3 11.7867 3.3729 11.7867 3.84939C11.7867 4.32587 12.1596 4.69878 12.636 4.69878H13.6097V6.0868C11.9731 6.27325 10.4401 6.97763 9.2592 8.11705C8.92773 8.44852 8.90702 8.96644 9.23849 9.29791C9.56995 9.62938 10.0879 9.65009 10.4193 9.31862C11.4966 8.28278 12.9468 7.70271 14.4591 7.70271C17.6909 7.70271 20.322 10.3337 20.322 13.5449C20.322 16.7767 17.6909 19.4077 14.4591 19.4077C12.9468 19.4077 11.5173 18.8276 10.4193 17.7918C10.0879 17.481 9.54924 17.481 9.23849 17.8125C8.92773 18.144 8.92773 18.6826 9.2592 18.9934C10.6679 20.34 12.5117 21.0858 14.4591 21.0858C18.6232 21.0858 22 17.7089 22 13.5449C21.9793 9.69153 19.0375 6.50114 15.2878 6.0868Z" fill="#006BA6"/>
<path d="M14.4384 9.44238C13.9826 9.44238 13.589 9.81528 13.589 10.2918V13.565C13.589 14.0208 13.9619 14.4144 14.4384 14.4144H17.2351C17.6909 14.4144 18.0845 14.0415 18.0845 13.565C18.0845 13.1093 17.7116 12.7156 17.2351 12.7156H15.2878V10.2918C15.2878 9.81528 14.8941 9.44238 14.4384 9.44238Z" fill="#006BA6"/>
<rect x="4" y="10" width="4" height="2" rx="1" fill="#006BA6"/>
<rect x="2" y="13" width="6" height="2" rx="1" fill="#006BA6"/>
<rect x="4" y="16" width="4" height="2" rx="1" fill="#006BA6"/>
</svg>
