<svg width="24" height="24" viewBox="0 0 24 24" fill="none" xmlns="http://www.w3.org/2000/svg">
<path fill-rule="evenodd" clip-rule="evenodd" d="M4.01001 20H20.01C21.11 20 22.01 19.1 22.01 18V6C22.01 4.9 21.11 4 20.01 4H4.01001C2.91001 4 2.01001 4.9 2.01001 6V18C2.01001 19.1 2.91001 20 4.01001 20ZM4.01001 18V6H20.01V18H4.01001ZM10.01 10.5C10.01 11.3284 9.33844 12 8.51001 12C7.68158 12 7.01001 11.3284 7.01001 10.5C7.01001 9.67157 7.68158 9 8.51001 9C9.33844 9 10.01 9.67157 10.01 10.5ZM6.01001 15V14.5C6.01001 13.4 6.91001 13 8.01001 13H9.01001C10.11 13 11.01 13.4 11.01 14.5V15H6.01001ZM13.51 11H17.51C17.78 11 18.01 10.77 18.01 10.5C18.01 10.22 17.79 10 17.51 10H13.51C13.23 10 13.01 10.22 13.01 10.5C13.01 10.78 13.23 11 13.51 11ZM17.51 13H13.51C13.23 13 13.01 12.78 13.01 12.5C13.01 12.22 13.23 12 13.51 12H17.51C17.79 12 18.01 12.22 18.01 12.5C18.01 12.77 17.78 13 17.51 13ZM13.51 15H17.51C17.78 15 18.01 14.77 18.01 14.5C18.01 14.22 17.79 14 17.51 14H13.51C13.23 14 13.01 14.22 13.01 14.5C13.01 14.78 13.23 15 13.51 15Z" fill="#003B71"/>
</svg>
