<svg width="40" height="40" viewBox="0 0 40 40" fill="none" xmlns="http://www.w3.org/2000/svg">
<ellipse cx="19.9991" cy="20" rx="19.9991" ry="20" fill="white"/>
<ellipse opacity="0.15" cx="19.9991" cy="20" rx="19.9991" ry="20" fill="#A4D751"/>
<path d="M28.0198 13.01H11.9998C10.8998 13.01 10.0098 13.91 10.0098 15.01V25C10.0098 26.09 10.9198 27 12.0098 27H28.0098C29.1098 27 30.0098 26.1 30.0098 25V15C30.0098 13.9 29.1198 13.01 28.0198 13.01ZM25.6898 15L20.0098 21L14.3398 15H25.6898ZM28.0098 25.01L12.0098 25V15.46L18.5998 22.41C18.9898 22.8 19.4998 23 20.0098 23C20.5298 23 21.0498 22.79 21.4498 22.39L28.0098 15.46V25.01Z" fill="#4A7628"/>
</svg>
