<svg width="40" height="40" viewBox="0 0 40 40" fill="none" xmlns="http://www.w3.org/2000/svg">
<ellipse cx="19.9991" cy="20" rx="19.9991" ry="20" fill="white"/>
<ellipse opacity="0.15" cx="19.9991" cy="20" rx="19.9991" ry="20" fill="#7BD3CF"/>
<path fill-rule="evenodd" clip-rule="evenodd" d="M27 11H26V10C26 9.44772 25.5523 9 25 9C24.4477 9 24 9.44772 24 10V11H16V10C16 9.44772 15.5523 9 15 9C14.4477 9 14 9.44772 14 10V11H13C11.91 11 11 11.91 11 13V27C11 28.09 11.9 29 13 29H27C28.1 29 29 28.09 29 27V13C29 11.91 28.1 11 27 11ZM13 13H27V15H13V13ZM27 27H13V17H27V27ZM15 23V25H17V23H15ZM15 21V19H17V21H15ZM21 23H19V25H21V23ZM23 25V23H25V25H23ZM21 19H19V21H21V19ZM23 21V19H25V21H23Z" fill="#066564"/>
</svg>
