<svg width="24" height="24" viewBox="0 0 24 24" fill="none" xmlns="http://www.w3.org/2000/svg">
<path d="M12 2C6.48 2 2 6.48 2 12C2 17.51 6.48 22 12 22C17.51 22 22 17.51 22 12C22 6.48 17.51 2 12 2ZM9.03 9.65C9.03 9.63 9.04 9.6 9.05 9.58C9.05 9.48 9.07 9.38 9.1 9.29C9.1 9.28 9.1 9.28 9.11 9.27C9.13 9.16 9.16 9.06 9.2 8.96C9.2 8.95 9.2 8.95 9.2 8.95C9.24 8.85 9.28 8.75 9.34 8.65C9.54 8.24 9.84 7.88 10.21 7.59H10.22C10.72 7.22 11.34 7 12.01 7C13.43 7 14.62 7.99 14.92 9.32H14.93C14.94 9.34 14.94 9.36 14.94 9.39C14.96 9.49 14.98 9.58 14.99 9.68C15 9.79 15 9.89 15 9.99C15 10.08 15 10.17 14.99 10.26C14.99 10.33 14.98 10.39 14.96 10.45V10.53C14.92 10.76 14.84 10.99 14.75 11.21C14.72 11.28 14.68 11.35 14.64 11.42C14.59 11.51 14.55 11.59 14.49 11.67C14.44 11.75 14.38 11.83 14.32 11.9C14.06 12.22 13.74 12.48 13.37 12.67C13.31 12.69 13.26 12.72 13.21 12.75C13.19 12.75 13.16 12.77 13.14 12.77C13.08 12.8 13.01 12.82 12.95 12.84C12.79 12.9 12.61 12.94 12.44 12.96C12.38 12.97 12.34 12.97 12.28 12.98C12.19 12.99 12.1 12.99 12.01 12.99C10.35 12.99 9.01 11.65 9.01 9.99C9.01 9.88 9.02 9.77 9.03 9.65ZM16 18.92V19H15.86C14.71 19.64 13.4 20 12 20C10.6 20 9.29 19.64 8.14 19H8V18.92C7.25 18.49 6.59 17.95 6.02 17.3C6.15 15.38 7.53 14.2 9.25 14.02C9.36 14.01 9.48 14 9.59 14H14.41C14.52 14 14.64 14.01 14.75 14.02C16.47 14.2 17.85 15.38 17.98 17.3C17.41 17.95 16.75 18.49 16 18.92Z" fill="white"/>
</svg>
