<svg width="17" height="17" viewBox="0 0 20 20" fill="none" xmlns="http://www.w3.org/2000/svg">
<path d="M10 0C4.48 0 0 4.48 0 10C0 15.51 4.48 20 10 20C15.51 20 20 15.51 20 10C20 4.48 15.51 0 10 0ZM7.03 7.65C7.03 7.63 7.04 7.6 7.05 7.58C7.05 7.48 7.07 7.38 7.1 7.29C7.1 7.28 7.1 7.28 7.11 7.27C7.13 7.16 7.16 7.06 7.2 6.96C7.2 6.95 7.2 6.95 7.2 6.95C7.24 6.85 7.28 6.75 7.34 6.65C7.54 6.24 7.84 5.88 8.21 5.59H8.22C8.72 5.22 9.34 5 10.01 5C11.43 5 12.62 5.99 12.92 7.32H12.93C12.94 7.34 12.94 7.36 12.94 7.39C12.96 7.49 12.98 7.58 12.99 7.68C13 7.79 13 7.89 13 7.99C13 8.08 13 8.17 12.99 8.26C12.99 8.33 12.98 8.39 12.96 8.45V8.53C12.92 8.76 12.84 8.99 12.75 9.21C12.72 9.28 12.68 9.35 12.64 9.42C12.59 9.51 12.55 9.59 12.49 9.67C12.44 9.75 12.38 9.83 12.32 9.9C12.06 10.22 11.74 10.48 11.37 10.67C11.31 10.69 11.26 10.72 11.21 10.75C11.19 10.75 11.16 10.77 11.14 10.77C11.08 10.8 11.01 10.82 10.95 10.84C10.79 10.9 10.61 10.94 10.44 10.96C10.38 10.97 10.34 10.97 10.28 10.98C10.19 10.99 10.1 10.99 10.01 10.99C8.35 10.99 7.01 9.65 7.01 7.99C7.01 7.88 7.02 7.77 7.03 7.65ZM14 16.92V17H13.86C12.71 17.64 11.4 18 10 18C8.6 18 7.29 17.64 6.14 17H6V16.92C5.25 16.49 4.59 15.95 4.02 15.3C4.15 13.38 5.53 12.2 7.25 12.02C7.36 12.01 7.48 12 7.59 12H12.41C12.52 12 12.64 12.01 12.75 12.02C14.47 12.2 15.85 13.38 15.98 15.3C15.41 15.95 14.75 16.49 14 16.92Z" fill="#003B71"/>
</svg>
