<svg width="40" height="40" viewBox="0 0 40 40" fill="none" xmlns="http://www.w3.org/2000/svg">
<ellipse cx="19.9991" cy="20" rx="19.9991" ry="20" fill="white"/>
<ellipse opacity="0.15" cx="19.9991" cy="20" rx="19.9991" ry="20" fill="#B2A8D2"/>
<path d="M24.42 24L26.71 21.71C27.1 21.32 27.1 20.68 26.71 20.29C26.32 19.9 25.68 19.9 25.29 20.29L23 22.58L20.23 19.81C21.84 19.29 23 17.78 23 16C23 13.79 21.21 12 19 12H15C14.45 12 14 12.45 14 13V24C14 24.55 14.45 25 15 25C15.55 25 16 24.55 16 24V20H17.58L21.58 24L19.29 26.29C18.9 26.68 18.9 27.32 19.29 27.71C19.49 27.9 19.74 28 20 28C20.26 28 20.51 27.9 20.71 27.71L23 25.42L25.29 27.71C25.49 27.9 25.74 28 26 28C26.26 28 26.51 27.9 26.71 27.71C27.1 27.32 27.1 26.68 26.71 26.29L24.42 24ZM16 18V14H19C20.1 14 21 14.9 21 16C21 17.1 20.1 18 19 18H16Z" fill="#583985"/>
</svg>
