<svg width="18" height="18" xmlns="http://www.w3.org/2000/svg">

 <g>
  <title>background</title>
  <rect fill="none" id="canvas_background" height="602" width="802" y="-1" x="-1"/>
 </g>
 <g>
  <title>Layer 1</title>
  <path id="svg_1" fill="#006ba6" d="m16,0l-14,0c-1.1,0 -2,0.9 -2,2l0,14c0,1.1 0.9,2 2,2l14,0c1.1,0 2,-0.9 2,-2l0,-14c0,-1.1 -0.9,-2 -2,-2zm-8.29,13.29c-0.39,0.39 -1.02,0.39 -1.41,0l-3.59,-3.59c-0.39,-0.39 -0.39,-1.02 0,-1.41c0.39,-0.39 1.02,-0.39 1.41,0l2.88,2.88l6.88,-6.88c0.39,-0.39 1.02,-0.39 1.41,0c0.39,0.39 0.39,1.02 0,1.41l-7.58,7.59z"/>
 </g>
</svg>