<svg width="24" height="24" viewBox="0 0 24 24" fill="none" xmlns="http://www.w3.org/2000/svg">
<path d="M18.71 17.32C18.8037 17.4129 18.8781 17.5235 18.9289 17.6454C18.9797 17.7673 19.0058 17.898 19.0058 18.03C19.0058 18.162 18.9797 18.2927 18.9289 18.4146C18.8781 18.5364 18.8037 18.647 18.71 18.74C18.5165 18.9162 18.2616 19.0096 18 19C17.8684 19.0007 17.7379 18.9755 17.6161 18.9258C17.4943 18.876 17.3835 18.8027 17.29 18.71L12 13.46L6.72001 18.74C6.62705 18.8337 6.51645 18.9081 6.39459 18.9589C6.27273 19.0096 6.14202 19.0358 6.01001 19.0358C5.878 19.0358 5.74729 19.0096 5.62543 18.9589C5.50357 18.9081 5.39297 18.8337 5.30001 18.74C5.20628 18.647 5.13189 18.5364 5.08112 18.4146C5.03035 18.2927 5.00421 18.162 5.00421 18.03C5.00421 17.898 5.03035 17.7673 5.08112 17.6454C5.13189 17.5235 5.20628 17.4129 5.30001 17.32L10.59 12L5.30001 6.74998C5.11171 6.56168 5.00592 6.30628 5.00592 6.03998C5.00592 5.77368 5.11171 5.51828 5.30001 5.32998C5.48831 5.14168 5.74371 5.03589 6.01001 5.03589C6.27631 5.03589 6.53171 5.14168 6.72001 5.32998L12 10.62L17.28 5.32998C17.3732 5.23674 17.4839 5.16278 17.6058 5.11232C17.7276 5.06186 17.8582 5.03589 17.99 5.03589C18.1219 5.03589 18.2524 5.06186 18.3743 5.11232C18.4961 5.16278 18.6068 5.23674 18.7 5.32998C18.7932 5.42322 18.8672 5.53391 18.9177 5.65573C18.9681 5.77755 18.9941 5.90812 18.9941 6.03998C18.9941 6.17184 18.9681 6.30241 18.9177 6.42423C18.8672 6.54605 18.7932 6.65674 18.7 6.74998L13.43 12L18.71 17.32Z" fill="#006BA6"/>
</svg>
