<svg width="24" height="24" viewBox="0 0 24 24" fill="none" xmlns="http://www.w3.org/2000/svg">
<path d="M8.94046 18.0195C8.67669 18.0158 8.42509 17.908 8.24046 17.7195L3.24046 12.7195C3.07663 12.5282 2.99102 12.2822 3.00075 12.0305C3.01047 11.7788 3.1148 11.5401 3.29289 11.362C3.47099 11.1839 3.70973 11.0796 3.9614 11.0698C4.21308 11.0601 4.45916 11.1457 4.65046 11.3095L8.94046 15.6395L18.2405 6.34954C18.3301 6.24486 18.4404 6.15984 18.5645 6.09982C18.6886 6.03979 18.8237 6.00606 18.9614 6.00075C19.0991 5.99543 19.2365 6.01863 19.3648 6.06891C19.4931 6.11918 19.6097 6.19544 19.7071 6.29289C19.8046 6.39035 19.8808 6.5069 19.9311 6.63522C19.9814 6.76355 20.0046 6.90088 19.9993 7.0386C19.9939 7.17632 19.9602 7.31145 19.9002 7.43551C19.8402 7.55958 19.7551 7.6699 19.6505 7.75954L9.65046 17.7595C9.45694 17.9358 9.20203 18.0291 8.94046 18.0195Z" fill="#003B71"/>
</svg>
